<svg xmlns="http://www.w3.org/2000/svg" version="1.1" xmlns:xlink="http://www.w3.org/1999/xlink" xmlns:svgjs="http://svgjs.dev/svgjs" width="1000" height="1000" viewBox="0 0 1000 1000"><rect width="1000" height="1000" fill="#000000"></rect><g transform="matrix(0.7,0,0,0.7,149.57575757575756,383.44030857809673)"><svg viewBox="0 0 396 132" data-background-color="#ffffff" preserveAspectRatio="xMidYMid meet" height="333" width="1000" xmlns="http://www.w3.org/2000/svg" xmlns:xlink="http://www.w3.org/1999/xlink"><g id="tight-bounds" transform="matrix(1,0,0,1,0.2400000000000091,0.0054880638834333695)"><svg viewBox="0 0 395.52 131.98902387223313" height="131.98902387223313" width="395.52"><g><svg viewBox="0 0 397.4975999999999 132.64896899159427" height="131.98902387223313" width="395.52"><g><rect width="397.4975999999999" height="4.0628627221806655" x="0" y="72.89804204120443" fill="#ffffff" opacity="1" stroke-width="0" stroke="transparent" fill-opacity="1" class="rect-o-0" data-fill-palette-color="secondary" rx="1%" id="o-0" data-palette-color="#89939e"></rect></g><g transform="matrix(1,0,0,1,0.9887999999999693,87.59667105181616)"><svg viewBox="0 0 395.52 45.05229793977812" height="45.05229793977812" width="395.52"><g id="textblocktransform"><svg viewBox="0 0 395.52 45.05229793977812" height="45.05229793977812" width="395.52" id="textblock"><g><svg viewBox="0 0 395.52 45.05229793977812" height="45.05229793977812" width="395.52"><g transform="matrix(1,0,0,1,0,0)"><svg width="395.52" viewBox="5 -28.75 252.3800048828125 28.75" height="45.05229793977812" data-palette-color="#89939e"><path d="M5-28.75L5-28.75 21-28.75 21-22.85 11.3-22.85 11.3-17.2 21-17.2 21-11.35 11.3-11.35 11.3 0 5 0 5-28.75ZM39.45 0L39.45 0 39.45-11.9 34.75-14.35 39.45-16.6 39.45-25.3 33.55-28.75 23.25-28.75 23.25-22.85 33.15-22.85 33.15-17.2 23.25-17.2 23.25-11.35 33.15-11.35 33.15 0 39.45 0ZM44.35-25.3L44.35-25.3 50.2-28.75 60.55-28.75 60.55-23.1 50.65-23.1 50.65-5.85 60.35-5.85 60.35 0 50.2 0 44.35-3.4 44.35-25.3ZM78.8-25.3L78.8-25.3 73.15-28.75 62.8-28.75 62.8-23.1 72.5-23.1 72.5-5.85 62.8-5.85 62.8 0 73.15 0 78.8-3.4 78.8-25.3ZM87.8 0L87.8-28.75 103.8-28.75 103.8-23.1 94.1-23.1 94.1-17.2 103.8-17.2 103.8-11.5 94.1-11.5 94.1-5.85 103.8-5.85 103.8 0 87.8 0ZM116.6 0L122.25-3.4 122.25-12.15 117.55-14.35 122.25-16.6 122.25-25.3 116.6-28.75 106.25-28.75 106.25-23.1 115.95-23.1 115.95-17.2 106.25-17.2 106.25-11.5 115.95-11.5 115.95-5.85 106.25-5.85 106.25 0 116.6 0ZM127.14 0L127.14-6.9 134.04-6.9 134.04 0 127.14 0ZM143.04 0L143.04-28.75 159.04-28.75 159.04-23.1 149.34-23.1 149.34-5.85 159.04-5.85 159.04 0 143.04 0ZM177.49-3.4L177.49-25.3 171.84-28.75 161.49-28.75 161.49-23.1 171.19-23.1 171.19-5.85 161.49-5.85 161.49 0 171.84 0 177.49-3.4ZM186.49-28.75L186.49-28.75 202.49-28.75 202.49-22.85 192.79-22.85 192.79-17.2 202.49-17.2 202.49-11.5 192.79-11.5 192.79-5.65 202.29-5.65 202.29 0 186.49 0 186.49-28.75ZM204.94-5.65L204.94-5.65 204.94 0 220.94 0 220.94-5.65 204.94-5.65ZM220.94-22.85L220.94-22.85 220.94-28.75 204.74-28.75 204.74-22.85 220.94-22.85ZM212.84-11.5L212.84-11.5 212.84-17.2 204.74-17.2 204.74-11.5 212.84-11.5ZM228.63-28.75L228.63-28.75 238.94-11.5 238.94 0 222.94-26.9 228.63-28.75ZM251.74-28.75L251.74-28.75 241.38-11.5 241.38 0 257.38-26.9 251.74-28.75Z" opacity="1" transform="matrix(1,0,0,1,0,0)" fill="#ffffff" class="wordmark-text-0" data-fill-palette-color="primary" id="text-0"></path></svg></g></svg></g></svg></g></svg></g><g transform="matrix(1,0,0,1,159.56618994218877,0)"><svg viewBox="0 0 78.3652201156224 62.26227575277337" height="62.26227575277337" width="78.3652201156224"><g><svg xmlns="http://www.w3.org/2000/svg" xmlns:xlink="http://www.w3.org/1999/xlink" version="1.1" x="7.9999999999999964" y="0" viewBox="0 0.20499849319458008 99.95999908447266 99.79499816894531" enable-background="new 0 0 100 100" xml:space="preserve" height="62.26227575277337" width="62.365220115622414" class="icon-icon-0" data-fill-palette-color="accent" id="icon-0"><g fill="#89939e" data-fill-palette-color="accent"><circle cx="49.98" cy="50.02" r="8.3" fill="#ffffff" data-fill-palette-color="accent"></circle><path d="M57.492 7.246c0 3.889-3.152 26.404-7.041 26.404-3.888 0-7.041-22.516-7.041-26.404s3.153-7.041 7.041-7.041C54.34 0.205 57.492 3.357 57.492 7.246z" fill="#ffffff" data-fill-palette-color="accent"></path><path d="M43.41 92.958c0-3.889 3.153-26.403 7.041-26.403 3.889 0 7.041 22.515 7.041 26.403S54.34 100 50.451 100C46.563 100 43.41 96.847 43.41 92.958z" fill="#ffffff" data-fill-palette-color="accent"></path><path d="M85.757 24.872c-2.791 2.707-21.142 16.131-23.849 13.341-2.708-2.79 11.248-20.736 14.038-23.445 2.79-2.707 7.249-2.643 9.956 0.148C88.612 17.705 88.546 22.163 85.757 24.872z" fill="#ffffff" data-fill-palette-color="accent"></path><path d="M14.773 75.181c2.79-2.708 21.14-16.129 23.849-13.342 2.707 2.792-11.249 20.736-14.039 23.445-2.789 2.71-7.247 2.645-9.955-0.146C11.919 82.348 11.985 77.892 14.773 75.181z" fill="#ffffff" data-fill-palette-color="accent"></path><path d="M74.163 86.315c-2.63-2.866-15.548-21.574-12.685-24.207C64.342 59.479 81.9 73.92 84.53 76.785c2.633 2.861 2.445 7.316-0.416 9.947C81.25 89.364 76.797 89.177 74.163 86.315z" fill="#ffffff" data-fill-palette-color="accent"></path><path d="M24.717 14.668c2.716 2.781 16.189 21.094 13.407 23.809-2.781 2.717-20.767-11.188-23.483-13.973-2.717-2.779-2.664-7.239 0.12-9.957C17.542 11.832 22.002 11.885 24.717 14.668z" fill="#ffffff" data-fill-palette-color="accent"></path><path d="M7.041 42.756c3.89 0 26.403 3.154 26.403 7.042 0 3.889-22.514 7.042-26.403 7.042C3.153 56.84 0 53.687 0 49.798 0 45.91 3.153 42.756 7.041 42.756z" fill="#ffffff" data-fill-palette-color="accent"></path><path d="M92.918 57.059c-3.889 0-26.402-3.15-26.402-7.039s22.514-7.041 26.402-7.041c3.89 0 7.042 3.152 7.042 7.041S96.808 57.059 92.918 57.059z" fill="#ffffff" data-fill-palette-color="accent"></path></g></svg></g></svg></g><g><rect width="83.03306994218879" height="4.0628627221806655" y="57.1994130305927" x="237.93141005781118" fill="#ffffff" data-fill-palette-color="secondary"></rect><rect width="83.03306994218879" height="4.0628627221806655" y="57.1994130305927" x="76.53311999999997" fill="#ffffff" data-fill-palette-color="secondary"></rect></g></svg></g><defs></defs></svg><rect width="395.52" height="131.98902387223313" fill="none" stroke="none" visibility="hidden"></rect></g></svg></g></svg>